<mxfile host="app.diagrams.net" agent="Mozilla/5.0 (Windows NT 10.0; Win64; x64) AppleWebKit/537.36 (KHTML, like Gecko) Chrome/129.0.0.0 Safari/537.36" version="24.7.17">
  <diagram name="Page-1" id="7SwiYtw_8JVTq1sRauOz">
    <mxGraphModel grid="1" page="1" gridSize="10" guides="1" tooltips="1" connect="1" arrows="1" fold="1" pageScale="1" pageWidth="850" pageHeight="1100" math="0" shadow="0">
      <root>
        <mxCell id="0" />
        <mxCell id="1" parent="0" />
        <mxCell id="vUYkQXHya1UMN2m67sSd-11" style="edgeStyle=orthogonalEdgeStyle;rounded=0;orthogonalLoop=1;jettySize=auto;html=1;exitX=0.5;exitY=1;exitDx=0;exitDy=0;entryX=0.5;entryY=0;entryDx=0;entryDy=0;" edge="1" parent="1" source="vUYkQXHya1UMN2m67sSd-2" target="vUYkQXHya1UMN2m67sSd-5">
          <mxGeometry relative="1" as="geometry" />
        </mxCell>
        <mxCell id="vUYkQXHya1UMN2m67sSd-13" style="edgeStyle=orthogonalEdgeStyle;rounded=0;orthogonalLoop=1;jettySize=auto;html=1;exitX=0.5;exitY=1;exitDx=0;exitDy=0;entryX=0.5;entryY=0;entryDx=0;entryDy=0;" edge="1" parent="1" source="vUYkQXHya1UMN2m67sSd-2" target="vUYkQXHya1UMN2m67sSd-9">
          <mxGeometry relative="1" as="geometry" />
        </mxCell>
        <mxCell id="vUYkQXHya1UMN2m67sSd-2" value="&lt;p style=&quot;margin:0px;margin-top:4px;text-align:center;text-decoration:underline;&quot;&gt;&lt;b&gt;Pembimbing&lt;/b&gt;&lt;/p&gt;&lt;hr size=&quot;1&quot; style=&quot;border-style:solid;&quot;&gt;&lt;p style=&quot;margin:0px;margin-left:8px;&quot;&gt;Nama: Bambang&lt;br&gt;ID Pembimbing: A001&lt;/p&gt;" style="verticalAlign=top;align=left;overflow=fill;html=1;whiteSpace=wrap;" vertex="1" parent="1">
          <mxGeometry x="320" y="200" width="200" height="70" as="geometry" />
        </mxCell>
        <mxCell id="vUYkQXHya1UMN2m67sSd-10" style="edgeStyle=orthogonalEdgeStyle;rounded=0;orthogonalLoop=1;jettySize=auto;html=1;exitX=0.5;exitY=1;exitDx=0;exitDy=0;entryX=0.5;entryY=0;entryDx=0;entryDy=0;" edge="1" parent="1" source="vUYkQXHya1UMN2m67sSd-4" target="vUYkQXHya1UMN2m67sSd-2">
          <mxGeometry relative="1" as="geometry" />
        </mxCell>
        <mxCell id="vUYkQXHya1UMN2m67sSd-4" value="&lt;p style=&quot;margin:0px;margin-top:4px;text-align:center;text-decoration:underline;&quot;&gt;&lt;b&gt;Mahasiswa&lt;/b&gt;&lt;/p&gt;&lt;hr size=&quot;1&quot; style=&quot;border-style:solid;&quot;&gt;&lt;p style=&quot;margin:0px;margin-left:8px;&quot;&gt;Nama: Atika Silvia&lt;br&gt;NIM: 12030123130108&lt;br&gt;&lt;/p&gt;" style="verticalAlign=top;align=left;overflow=fill;html=1;whiteSpace=wrap;" vertex="1" parent="1">
          <mxGeometry x="320" y="80" width="200" height="70" as="geometry" />
        </mxCell>
        <mxCell id="vUYkQXHya1UMN2m67sSd-5" value="&lt;p style=&quot;margin:0px;margin-top:4px;text-align:center;text-decoration:underline;&quot;&gt;&lt;b&gt;&lt;font face=&quot;Helvetica&quot;&gt;Dosen&lt;/font&gt;&lt;/b&gt;&lt;/p&gt;&lt;hr size=&quot;1&quot; style=&quot;border-style:solid;&quot;&gt;&lt;p style=&quot;margin:0px;margin-left:8px;&quot;&gt;&lt;font face=&quot;Helvetica&quot;&gt;Nama:&amp;nbsp;&lt;span style=&quot;line-height: 107%;&quot;&gt;&lt;font style=&quot;font-size: 11px;&quot;&gt;Dr. Totok Dewayanto, SE, MSi, Ak, CA, CertDA&lt;/font&gt;&lt;/span&gt;&lt;br&gt;&lt;/font&gt;ID Dosen: D001&lt;/p&gt;" style="verticalAlign=top;align=left;overflow=fill;html=1;whiteSpace=wrap;" vertex="1" parent="1">
          <mxGeometry x="320" y="330" width="200" height="80" as="geometry" />
        </mxCell>
        <mxCell id="vUYkQXHya1UMN2m67sSd-7" value="&lt;p style=&quot;margin:0px;margin-top:4px;text-align:center;text-decoration:underline;&quot;&gt;&lt;b&gt;&lt;font face=&quot;Helvetica&quot;&gt;Kelas&lt;/font&gt;&lt;/b&gt;&lt;/p&gt;&lt;hr size=&quot;1&quot; style=&quot;border-style:solid;&quot;&gt;&lt;p style=&quot;margin:0px;margin-left:8px;&quot;&gt;&lt;font face=&quot;Helvetica&quot;&gt;Nama kelas: &lt;span style=&quot;font-size: 11px;&quot;&gt;Analisis Desain Sistem&lt;/span&gt;&lt;br&gt;&lt;/font&gt;ID Kelas: D&lt;/p&gt;" style="verticalAlign=top;align=left;overflow=fill;html=1;whiteSpace=wrap;" vertex="1" parent="1">
          <mxGeometry x="570" y="330" width="200" height="80" as="geometry" />
        </mxCell>
        <mxCell id="vUYkQXHya1UMN2m67sSd-8" value="&lt;p style=&quot;margin:0px;margin-top:4px;text-align:center;text-decoration:underline;&quot;&gt;&lt;b&gt;&lt;font face=&quot;Helvetica&quot;&gt;Nilai&lt;/font&gt;&lt;/b&gt;&lt;/p&gt;&lt;hr size=&quot;1&quot; style=&quot;border-style:solid;&quot;&gt;&lt;p style=&quot;margin:0px;margin-left:8px;&quot;&gt;ID nilai: N001&lt;/p&gt;&lt;p style=&quot;margin:0px;margin-left:8px;&quot;&gt;NIM: 12030123130108&lt;/p&gt;&lt;p style=&quot;margin:0px;margin-left:8px;&quot;&gt;Nilai Akhir: A&lt;/p&gt;" style="verticalAlign=top;align=left;overflow=fill;html=1;whiteSpace=wrap;" vertex="1" parent="1">
          <mxGeometry x="320" y="470" width="200" height="80" as="geometry" />
        </mxCell>
        <mxCell id="vUYkQXHya1UMN2m67sSd-9" value="&lt;p style=&quot;margin:0px;margin-top:4px;text-align:center;text-decoration:underline;&quot;&gt;&lt;b&gt;&lt;font face=&quot;Helvetica&quot;&gt;Daftar Kelas&lt;/font&gt;&lt;/b&gt;&lt;/p&gt;&lt;hr size=&quot;1&quot; style=&quot;border-style:solid;&quot;&gt;&lt;p style=&quot;margin:0px;margin-left:8px;&quot;&gt;Roster ID: R001&lt;/p&gt;&lt;p style=&quot;margin:0px;margin-left:8px;&quot;&gt;Daftar orang: 50 Mahasiswa&lt;/p&gt;" style="verticalAlign=top;align=left;overflow=fill;html=1;whiteSpace=wrap;" vertex="1" parent="1">
          <mxGeometry x="70" y="330" width="200" height="80" as="geometry" />
        </mxCell>
        <mxCell id="vUYkQXHya1UMN2m67sSd-12" style="edgeStyle=orthogonalEdgeStyle;rounded=0;orthogonalLoop=1;jettySize=auto;html=1;exitX=0.5;exitY=1;exitDx=0;exitDy=0;entryX=0.55;entryY=0;entryDx=0;entryDy=0;entryPerimeter=0;" edge="1" parent="1" source="vUYkQXHya1UMN2m67sSd-2" target="vUYkQXHya1UMN2m67sSd-7">
          <mxGeometry relative="1" as="geometry" />
        </mxCell>
        <mxCell id="vUYkQXHya1UMN2m67sSd-14" style="edgeStyle=orthogonalEdgeStyle;rounded=0;orthogonalLoop=1;jettySize=auto;html=1;exitX=0.5;exitY=1;exitDx=0;exitDy=0;entryX=0.5;entryY=0;entryDx=0;entryDy=0;" edge="1" parent="1" source="vUYkQXHya1UMN2m67sSd-5" target="vUYkQXHya1UMN2m67sSd-8">
          <mxGeometry relative="1" as="geometry" />
        </mxCell>
        <mxCell id="vUYkQXHya1UMN2m67sSd-15" value="Object Diagram Kasus 5.1 (halaman 160)" style="text;html=1;align=center;verticalAlign=middle;whiteSpace=wrap;rounded=0;fontSize=18;fontStyle=1" vertex="1" parent="1">
          <mxGeometry x="35" y="30" width="365" height="30" as="geometry" />
        </mxCell>
      </root>
    </mxGraphModel>
  </diagram>
</mxfile>
